<?xml version="1.0" encoding="utf-8"?>
<!-- Generator: Adobe Illustrator 21.0.0, SVG Export Plug-In . SVG Version: 6.00 Build 0)  -->
<svg version="1.1" id="Layer_1" xmlns="http://www.w3.org/2000/svg" xmlns:xlink="http://www.w3.org/1999/xlink" x="0px" y="0px"
	 viewBox="0 0 17 17" style="enable-background:new 0 0 17 17;" xml:space="preserve">
<style type="text/css">
	.st0{fill:#313131;}
</style>
<title>Facebook</title>
<desc>Created with Sketch.</desc>
<path class="st0" d="M8.4,0C3.8,0,0,3.8,0,8.4s3.8,8.4,8.4,8.4s8.4-3.8,8.4-8.4S13.1,0,8.4,0z M10.7,5.2c0,0.1-0.1,0.2-0.2,0.2
	l-0.8,0C9.2,5.4,9.1,5.6,9.1,6v0.9h1.4c0,0,0.1,0,0.1,0.1c0,0,0.1,0.1,0.1,0.1l0,1.5c0,0.1-0.1,0.2-0.2,0.2H9.1v3.8
	c0,0.1-0.1,0.2-0.2,0.2H7.4c-0.1,0-0.2-0.1-0.2-0.2V8.8H6c-0.1,0-0.2-0.1-0.2-0.2V7.1C5.8,7,5.9,6.9,6,6.9h1.2V5.9
	c0-1.4,0.9-2.3,2.2-2.3l1.2,0c0.1,0,0.2,0.1,0.2,0.2V5.2z"/>
</svg>
