<?xml version="1.0" encoding="UTF-8"?>
<svg width="16px" height="16px" viewBox="0 0 16 16" version="1.1" xmlns="http://www.w3.org/2000/svg" xmlns:xlink="http://www.w3.org/1999/xlink">
    <!-- Generator: Sketch 42 (36781) - http://www.bohemiancoding.com/sketch -->
    <title>icon_telefono_grey</title>
    <desc>Created with Sketch.</desc>
    <defs></defs>
    <g id="Welcome" stroke="none" stroke-width="1" fill="none" fill-rule="evenodd">
        <g id="Desktop" transform="translate(-522.000000, -1430.000000)" fill="#313131">
            <path d="M537.83623,1442.44159 L534.955695,1439.56105 C534.734024,1439.34294 534.372475,1439.34294 534.150804,1439.56105 L533.520168,1440.19406 L532.932207,1440.77846 C532.863453,1440.85314 532.784031,1440.91716 532.701053,1440.97287 L536.395962,1444.67252 C536.873681,1444.19125 537.350214,1443.71946 537.826747,1443.24174 C538.054345,1443.02007 538.057901,1442.66326 537.83623,1442.44159 M530.067081,1441.32019 C529.460154,1440.79743 528.881676,1440.24503 528.316237,1439.68552 C527.751984,1439.11653 527.20077,1438.53805 526.681563,1437.93112 C526.254817,1437.44036 526.173024,1436.72201 526.394695,1436.12456 L522.601396,1432.32771 C521.718269,1433.23573 521.828512,1435.48563 522.795803,1437.46288 C523.213066,1438.31875 523.75124,1439.09282 524.304824,1439.8254 C524.861965,1440.55205 525.473634,1441.24196 526.11731,1441.89037 C526.760985,1442.53405 527.444964,1443.14928 528.172803,1443.70405 C528.90894,1444.26119 529.681825,1444.79818 530.534131,1445.20951 C532.511388,1446.17799 534.761288,1446.28467 535.669309,1445.40036 L531.877196,1441.60706 C531.27501,1441.82992 530.556654,1441.74694 530.067081,1441.32019 M527.02296,1435.29596 L523.329235,1431.60105 C523.805769,1431.12452 524.282302,1430.64206 524.76002,1430.16553 C524.982876,1429.94741 525.338498,1429.94386 525.561354,1430.16079 L528.437149,1433.04132 C528.658819,1433.26299 528.658819,1433.62454 528.437149,1433.8474 L527.217366,1435.06481 C527.143871,1435.13356 527.079859,1435.21298 527.02296,1435.29596" id="icon_telefono_grey"></path>
        </g>
    </g>
</svg>