<?xml version="1.0" encoding="UTF-8"?>
<svg width="16px" height="16px" viewBox="0 0 16 16" version="1.1" xmlns="http://www.w3.org/2000/svg" xmlns:xlink="http://www.w3.org/1999/xlink">
    <!-- Generator: Sketch 42 (36781) - http://www.bohemiancoding.com/sketch -->
    <title>icon_whatsapp</title>
    <desc>Created with Sketch.</desc>
    <defs></defs>
    <g id="Welcome" stroke="none" stroke-width="1" fill="none" fill-rule="evenodd">
        <g id="Desktop" transform="translate(-719.000000, -14.000000)" fill="#0382F9">
            <g id="Group" transform="translate(456.000000, 9.000000)">
                <path d="M273.305332,13.9435771 C273.122856,13.8774672 272.990154,13.8444312 272.857451,14.0426849 C272.724749,14.2410146 272.343296,14.6872468 272.227134,14.8195046 C272.111048,14.9516484 271.994924,14.9682614 271.795909,14.8690775 C271.596817,14.7698937 270.955422,14.5607294 270.195114,13.8857547 C269.603339,13.3604871 269.203857,12.7117814 269.087733,12.5134137 C268.971647,12.3151221 269.075395,12.2079168 269.175055,12.1091132 C269.264593,12.0203457 269.374109,11.8777095 269.473616,11.7620647 C269.573162,11.6463819 269.606319,11.5636971 269.67267,11.4315913 C269.739021,11.2993335 269.705865,11.1836507 269.656092,11.0845049 C269.606319,10.9853591 269.208212,10.0102097 269.042353,9.61351233 C268.880772,9.2273074 268.71667,9.27961746 268.594472,9.27345887 C268.478501,9.26771844 268.345646,9.26650193 268.212982,9.26650193 C268.080279,9.26650193 267.864609,9.31607484 267.682172,9.5143665 C267.499697,9.71273418 266.985465,10.1920024 266.985465,11.1670757 C266.985465,12.1421871 267.69875,13.0841485 267.798296,13.2163683 C267.897804,13.3486261 269.201909,15.3495622 271.198748,16.2076982 C271.673673,16.4118064 272.044468,16.5337238 272.333518,16.6249623 C272.810391,16.7758099 273.244328,16.7545209 273.587277,16.7035034 C273.969722,16.6466314 274.764982,16.2242732 274.930879,15.761542 C275.096738,15.2987348 275.096738,14.9021135 275.046965,14.8195046 C274.99723,14.7368577 274.864528,14.6872468 274.665474,14.588063 C274.466421,14.4889552 273.487807,14.009725 273.305332,13.9435771 Z M267.660628,18.6049516 L267.418868,18.4621253 L264.912764,19.1163813 L265.581662,16.6846475 L265.424245,16.4353383 C264.76142,15.3861337 264.411367,14.1735361 264.411864,12.9283588 C264.413315,9.29501396 267.383725,6.33903891 271.036098,6.33903891 C272.804699,6.33964716 274.467223,7.02602673 275.717391,8.27162222 C276.967521,9.51717969 277.655595,11.1728922 277.654945,12.933643 C277.653456,16.567292 274.683046,19.5234951 271.033462,19.5234951 C269.842654,19.5230389 268.677287,19.2053769 267.660628,18.6049516 Z M271.033385,5 C266.642326,5 263.068529,8.55643837 263.066771,12.9278266 C263.066198,14.3252201 263.433021,15.6891595 264.130186,16.8915688 L263,21 L267.223176,19.8974589 C268.386786,20.5290953 269.696888,20.8620398 271.030215,20.862496 C275.424101,20.862496 278.998242,17.3056775 278.999999,12.9341752 C279.000802,10.8157315 278.17292,8.82372914 276.668845,7.32513692 C275.16477,5.82650668 273.164531,5.00083635 271.033385,5 Z" id="icon_whatsapp"></path>
            </g>
        </g>
    </g>
</svg>