<?xml version="1.0" encoding="UTF-8"?>
<svg width="16px" height="16px" viewBox="0 0 16 16" version="1.1" xmlns="http://www.w3.org/2000/svg" xmlns:xlink="http://www.w3.org/1999/xlink">
    <!-- Generator: Sketch 42 (36781) - http://www.bohemiancoding.com/sketch -->
    <title>icon_whatsapp_grey</title>
    <desc>Created with Sketch.</desc>
    <defs></defs>
    <g id="Welcome" stroke="none" stroke-width="1" fill="none" fill-rule="evenodd">
        <g id="Desktop" transform="translate(-645.000000, -1360.000000)" fill="#313131">
            <path d="M656.665474,1369.58806 C656.466421,1369.48896 655.487807,1369.00972 655.305332,1368.94358 C655.122856,1368.87747 654.990154,1368.84443 654.857451,1369.04268 C654.724749,1369.24101 654.343296,1369.68725 654.227134,1369.8195 C654.111048,1369.95165 653.994924,1369.96826 653.795909,1369.86908 C653.596817,1369.76989 652.955422,1369.56073 652.195114,1368.88575 C651.603339,1368.36049 651.203857,1367.71178 651.087733,1367.51341 C650.971647,1367.31512 651.075395,1367.20792 651.175055,1367.10911 C651.264593,1367.02035 651.374109,1366.87771 651.473616,1366.76206 C651.573162,1366.64638 651.606319,1366.5637 651.67267,1366.43159 C651.739021,1366.29933 651.705865,1366.18365 651.656092,1366.0845 C651.606319,1365.98536 651.208212,1365.01021 651.042353,1364.61351 C650.880772,1364.22731 650.71667,1364.27962 650.594472,1364.27346 C650.478501,1364.26772 650.345646,1364.2665 650.212982,1364.2665 C650.080279,1364.2665 649.864609,1364.31607 649.682172,1364.51437 C649.499697,1364.71273 648.985465,1365.192 648.985465,1366.16708 C648.985465,1367.14219 649.69875,1368.08415 649.798296,1368.21637 C649.897804,1368.34863 651.201909,1370.34956 653.198748,1371.2077 C653.673673,1371.41181 654.044468,1371.53372 654.333518,1371.62496 C654.810391,1371.77581 655.244328,1371.75452 655.587277,1371.7035 C655.969722,1371.64663 656.764982,1371.22427 656.930879,1370.76154 C657.096738,1370.29873 657.096738,1369.90211 657.046965,1369.8195 C656.99723,1369.73686 657.864528,1369.68725 657.665474,1369.58806 M649.660628,1373.60495 L649.418868,1373.46213 L646.912764,1374.11638 L647.581662,1371.68465 L647.424245,1371.43534 C646.76142,1370.38613 646.411367,1369.17354 646.411864,1367.92836 C646.413315,1364.29501 649.383725,1361.33904 653.036098,1361.33904 C654.804699,1361.33965 656.467223,1362.02603 657.717391,1363.27162 C658.967521,1364.51718 659.655595,1366.17289 659.654945,1367.93364 C659.653456,1371.56729 656.683046,1374.5235 653.033462,1374.5235 C651.842654,1374.52304 650.677287,1374.20538 649.660628,1373.60495 Z M653.033385,1360 C648.642326,1360 645.068529,1363.55644 645.066771,1367.92783 C645.066198,1369.32522 645.433021,1370.68916 646.130186,1371.89157 L645,1376 L649.223176,1374.89746 C650.386786,1375.5291 651.696888,1375.86204 653.030215,1375.8625 C657.424101,1375.8625 660.998242,1372.30568 660.999999,1367.93418 C661.000802,1365.81573 660.17292,1363.82373 658.668845,1362.32514 C657.16477,1360.82651 655.164531,1360.00084 653.033385,1360 Z" id="icon_whatsapp_grey"></path>
        </g>
    </g>
</svg>