<?xml version="1.0" encoding="UTF-8"?>
<svg width="17px" height="17px" viewBox="0 0 17 17" version="1.1" xmlns="http://www.w3.org/2000/svg" xmlns:xlink="http://www.w3.org/1999/xlink">
    <!-- Generator: Sketch 42 (36781) - http://www.bohemiancoding.com/sketch -->
    <title>icon_facebook_grey</title>
    <desc>Created with Sketch.</desc>
    <defs></defs>
    <g id="Welcome" stroke="none" stroke-width="1" fill="none" fill-rule="evenodd">
        <g id="Desktop" transform="translate(-522.000000, -1407.000000)">
            <g id="icon_facebook_grey" transform="translate(522.000000, 1407.000000)">
                <ellipse id="Oval" fill="#313131" cx="8.4251312" cy="8.4251312" rx="8.4251312" ry="8.4251312"></ellipse>
                <path d="M9.37149592,3.57894737 C8.04540053,3.57894737 7.1881674,4.47430414 7.1881674,5.85982326 L7.1881674,6.91161738 L6.00115637,6.91161738 C5.89900335,6.91161738 5.81578947,6.99586215 5.81578947,7.10035459 L5.81578947,8.6243533 C5.81578947,8.72836365 5.89900335,8.81309051 6.00115637,8.81309051 L7.1881674,8.81309051 L7.1881674,12.6580989 C7.1881674,12.7621092 7.27138128,12.8468361 7.37400778,12.8468361 L8.92204629,12.8468361 C9.02479116,12.8468361 9.10788667,12.7621092 9.10788667,12.6580989 L9.10788667,8.81309051 L10.4955343,8.81309051 C10.5982792,8.81309051 10.6810196,8.72836365 10.6810196,8.6243533 L10.6819665,7.10035459 C10.6819665,7.05045855 10.6620804,7.00249085 10.6273981,6.96669587 C10.5927158,6.93138297 10.5454863,6.91161738 10.4960078,6.91161738 L9.10788667,6.91161738 L9.10788667,6.01999679 C9.10788667,5.59154163 9.20826415,5.3739997 9.75619734,5.3739997 L10.5515231,5.37351762 C10.6541496,5.37351762 10.73689,5.28879076 10.73689,5.18478041 L10.73689,3.77009501 C10.73689,3.66548205 10.6541496,3.58123728 10.5519966,3.5807552 L9.37149592,3.57894737 Z" id="Fill-1" fill="#EEEEEE"></path>
            </g>
        </g>
    </g>
</svg>