<?xml version="1.0" encoding="UTF-8"?>
<svg width="16px" height="16px" viewBox="0 0 16 16" version="1.1" xmlns="http://www.w3.org/2000/svg" xmlns:xlink="http://www.w3.org/1999/xlink">
    <!-- Generator: Sketch 42 (36781) - http://www.bohemiancoding.com/sketch -->
    <title>icon_telefono</title>
    <desc>Created with Sketch.</desc>
    <defs></defs>
    <g id="Welcome" stroke="none" stroke-width="1" fill="none" fill-rule="evenodd">
        <g id="Desktop" transform="translate(-583.000000, -14.000000)" fill="#0382F9">
            <g id="Group" transform="translate(456.000000, 9.000000)">
                <path d="M142.83623,17.4415885 L139.955695,14.5610527 C139.734024,14.342938 139.372475,14.342938 139.150804,14.5610527 L138.520168,15.1940593 L137.932207,15.7784643 C137.863453,15.8531449 137.784031,15.9171568 137.701053,15.9728709 L141.395962,19.672522 C141.873681,19.1912473 142.350214,18.7194559 142.826747,18.2417374 C143.054345,18.0200665 143.057901,17.6632594 142.83623,17.4415885 M135.067081,16.3201947 C134.460154,15.7974308 133.881676,15.2450318 133.316237,14.6855203 C132.751984,14.1165255 132.20077,13.5380475 131.681563,12.9311198 C131.254817,12.4403619 131.173024,11.722006 131.394695,11.1245615 L127.601396,7.3277071 C126.718269,8.23572786 126.828512,10.4856279 127.795803,12.4628846 C128.213066,13.3187475 128.75124,14.0928174 129.304824,14.8253981 C129.861965,15.5520518 130.473634,16.2419579 131.11731,16.8903749 C131.760985,17.5340502 132.444964,18.1492757 133.172803,18.7040456 C133.90894,19.2611863 134.681825,19.798175 135.534131,20.2095108 C137.511388,21.1779873 139.761288,21.2846738 140.669309,20.4003611 L136.877196,16.6070629 C136.27501,16.8299192 135.556654,16.7469408 135.067081,16.3201947 M132.02296,10.295963 L128.329235,6.60105341 C128.805769,6.12452032 129.282302,5.6420602 129.76002,5.16552711 C129.982876,4.94741246 130.338498,4.94385624 130.561354,5.16078548 L133.437149,8.04132133 C133.658819,8.26299219 133.658819,8.62454093 133.437149,8.8473972 L132.217366,10.0648089 C132.143871,10.1335624 132.079859,10.2129846 132.02296,10.295963" id="icon_telefono"></path>
            </g>
        </g>
    </g>
</svg>