<?xml version="1.0" encoding="UTF-8"?>
<svg width="100%" height="auto" viewBox="0 0 188 95" version="1.1" xmlns="http://www.w3.org/2000/svg" xmlns:xlink="http://www.w3.org/1999/xlink">
    <!-- Generator: Sketch 42 (36781) - http://www.bohemiancoding.com/sketch -->
    <title>Logo Copy</title>
    <desc>Created with Sketch.</desc>
    <defs></defs>
    <g id="Welcome" stroke="none" stroke-width="1" fill="none" fill-rule="evenodd">
        <g id="Desktop" transform="translate(-418.000000, -108.000000)" fill="#FFFFFF">
            <g id="Logo-Copy" transform="translate(418.000000, 108.000000)">
                <path d="M93.5081477,77.671094 L93.5081477,65.5435595 C96.1577408,65.1793151 97.4817388,64.9968589 100.131332,64.6326145 L100.131332,30.2027518 C97.4817388,29.7843968 96.1577408,29.5751358 93.5081477,29.1569478 L93.5081477,17.0294133 C103.801894,19.6675548 114.094379,22.3062807 124.387957,24.9440047 C127.608724,31.4782752 130.936582,37.9398136 134.680526,44.1973519 C137.651221,39.3030162 140.886783,34.5582362 144.481861,30.0939461 C154.80427,32.7416905 165.127773,35.3860947 175.450015,38.0325866 L175.450015,42.0916319 C172.782854,41.6709388 171.450198,41.4607592 168.783036,41.0398157 L168.783036,55.1890652 C171.450198,54.8221487 172.782854,54.639776 175.450015,54.2728594 L175.450015,58.3325728 C165.336994,60.7209538 155.222375,63.1049926 145.109186,65.4934571 L145.109186,58.4452196 C147.901677,58.0609343 149.298302,57.8698772 152.090709,57.4855918 L152.090709,39.8710103 C146.92114,45.7829256 142.652422,52.2790347 138.529712,58.9330499 C135.253634,59.3661016 133.616016,59.5832955 130.339938,60.0163472 C125.253503,52.0102354 120.921572,43.6142436 116.779277,35.0984235 L116.779277,62.3421002 C119.607409,61.9529716 121.021601,61.7584908 123.849902,61.3693623 L123.849902,70.5102097 C113.73604,72.8966701 103.622094,75.2842996 93.5081477,77.671094" id="Fill-44"></path>
                <path d="M93.5081477,77.671094 L93.5081477,65.5435595 C90.8593952,65.1793151 89.5346407,64.9968589 86.8858881,64.6326145 L86.8858881,30.2027518 C89.5346407,29.7843968 90.8593952,29.5751358 93.5081477,29.1569478 L93.5081477,17.0294133 C83.2155784,19.6675548 72.922841,22.3059467 62.6301036,24.9440047 C59.4084956,31.4782752 56.0806382,37.9398136 52.3366937,44.1973519 C49.3654105,39.3030162 46.1306054,34.5588207 42.5355276,30.0939461 C32.2131177,32.7416905 21.889615,35.3864287 11.5673732,38.0325866 L11.5673732,42.0916319 C14.2343664,41.6709388 15.5670223,41.4607592 18.2342676,41.0398157 L18.2342676,55.1890652 C15.5670223,54.8221487 14.2343664,54.639776 11.5673732,54.2728594 L11.5673732,58.3325728 C21.6802265,60.7209538 31.7950971,63.1049926 41.9089591,65.4934571 L41.9089591,58.4452196 C39.1165514,58.0609343 37.7199272,57.8698772 34.9274355,57.4855918 C34.9266789,51.6142595 34.9274355,45.7423427 34.9274355,39.8710103 C40.095323,45.7846792 44.3658071,52.2787007 48.4875925,58.9330499 C51.7636701,59.3661016 53.4019611,59.5832955 56.6782908,60.0163472 C61.7626247,52.0098179 66.0956479,43.6145776 70.2381957,35.0984235 L70.2381957,62.3421002 C67.4098111,61.9529716 65.9957029,61.7584908 63.1674025,61.3693623 L63.1674025,70.5102097 C73.2811803,72.8966701 83.3943698,75.2838821 93.5081477,77.671094" id="Fill-45"></path>
                <path d="M9.88592688,61.9929366 L93.75432,84.1000326 L177.62389,61.9929366 L177.62389,34.4279366 L93.75432,10.6008255 L9.88592688,34.4279366 L9.88592688,61.9929366 Z M93.75432,85.9444686 L93.5245054,85.8840118 L8.09128798,63.3641556 L8.09128798,33.0836894 L93.75432,8.74686998 L179.418529,33.0836894 L179.418529,63.3641556 L93.75432,85.9444686 Z" id="Fill-93"></path>
                <path d="M93.7543284,0.423768755 L0.016430035,26.9783706 L0.016430035,69.5349249 L93.7543284,94.244005 L187.493236,69.5349249 L187.493236,26.9783706 L93.7543284,0.423768755 Z M93.7543284,6.91161101 L181.212756,31.6873274 L181.212756,64.7353662 L93.7543284,87.7888964 L6.2968256,64.7353662 L6.2968256,31.6873274 L93.7543284,6.91161101 Z" id="Fill-94"></path>
            </g>
        </g>
    </g>
</svg>
