<?xml version="1.0" encoding="UTF-8"?>
<svg width="227px" height="15px" viewBox="0 0 227 15" version="1.1" xmlns="http://www.w3.org/2000/svg" xmlns:xlink="http://www.w3.org/1999/xlink">
    <!-- Generator: Sketch 42 (36781) - http://www.bohemiancoding.com/sketch -->
    <title>texto_logo</title>
    <desc>Created with Sketch.</desc>
    <defs></defs>
    <g id="Welcome" stroke="none" stroke-width="1" fill="none" fill-rule="evenodd">
        <g id="Desktop" transform="translate(-205.000000, -15.000000)" fill="#FFFFFF">
            <g id="texto_logo" transform="translate(205.000000, 15.000000)">
                <polygon id="Fill-46" points="0.184934518 14.3010711 0.184934518 11.6295591 1.54923099 11.6295591 1.54923099 3.61368787 0.184934518 3.61368787 0.184934518 0.941783166 6.54405862 0.941783166 8.66339368 6.43963066 10.6816253 0.941783166 17.0590519 0.941783166 17.0590519 3.61368787 15.6855643 3.61368787 15.6855643 11.6295591 17.0590519 11.6295591 17.0590519 14.3010711 10.810702 14.3010711 10.810702 11.6295591 12.2482884 11.6295591 12.2482884 4.22960452 9.45615622 11.4847115 7.76952773 11.4847115 4.97731558 4.22960452 4.97731558 11.6295591 6.43320454 11.6295591 6.43320454 14.3010711"></polygon>
                <path d="M19.0217766,9.68222248 L19.0217766,3.61370358 L17.6395773,3.61370358 L17.6395773,0.941798876 L23.9799993,0.941798876 L23.9799993,3.61370358 L22.5515241,3.61370358 L22.5515241,9.20164882 C22.5515241,9.89643045 22.7340697,10.4246059 23.0998002,10.7870392 C23.4652111,11.1494725 23.9983817,11.3302964 24.6985127,11.3302964 C25.3992033,11.3302964 25.9302958,11.1494725 26.2931491,10.7870392 C26.6555229,10.4246059 26.8366299,9.89643045 26.8366299,9.20164882 L26.8366299,3.61370358 L25.4175058,3.61370358 L25.4175058,0.941798876 L31.7395453,0.941798876 L31.7395453,3.61370358 L30.3849196,3.61370358 L30.3849196,9.68222248 C30.3849196,11.1853702 29.8762856,12.3749431 28.8593372,13.2505487 C27.8427086,14.1260756 26.455474,14.5640748 24.6985127,14.5640748 C22.9477056,14.5640748 21.5640676,14.1260756 20.5471992,13.2505487 C19.5303307,12.3749431 19.0217766,11.1853702 19.0217766,9.68222248" id="Fill-47"></path>
                <path d="M37.2780135,3.61367216 L37.2780135,6.43961495 L38.6697238,6.43961495 C39.3147875,6.43961495 39.7905729,6.32516647 40.0980391,6.09516979 C40.4050258,5.86588007 40.5585591,5.50973084 40.5585591,5.0262508 C40.5585591,4.54355627 40.4050258,4.18740705 40.0980391,3.95772457 C39.7905729,3.72812065 39.3147875,3.61367216 38.6697238,3.61367216 L37.2780135,3.61367216 Z M32.3659868,14.3010553 L32.3659868,11.6295434 L33.7300435,11.6295434 L33.7300435,3.61367216 L32.3659868,3.61367216 L32.3659868,0.941767455 L40.752294,0.941767455 C41.8087246,0.941767455 42.6676639,1.26311869 43.3278331,1.90652811 C43.9884819,2.54954478 44.3188063,3.38446099 44.3188063,4.41072691 C44.3188063,5.15318886 44.135941,5.76172174 43.7702904,6.23561858 C43.4049595,6.70990818 42.8318271,7.09174351 42.0516924,7.38159588 C42.7150586,7.5807221 43.1639098,7.81590313 43.3971269,8.08768882 C43.6307437,8.35986727 43.7473523,8.76699595 43.7473523,9.31056733 L43.7473523,11.6295434 L44.9728214,11.6295434 L44.9728214,14.3010553 L40.2180045,14.3010553 L40.2180045,11.1854173 C40.2180045,10.0684252 40.0871695,9.36193954 39.8258991,9.06635296 C39.5646287,8.77029508 39.0781336,8.62214831 38.3655344,8.62214831 L37.2780135,8.62214831 L37.2780135,11.6295434 L38.3655344,11.6295434 L38.3655344,14.3010553 L32.3659868,14.3010553 Z" id="Fill-48"></path>
                <polygon id="Fill-49" points="45.6364354 14.3010711 45.6364354 11.6295591 47.0188745 11.6295591 47.0188745 3.61368787 45.6364354 3.61368787 45.6364354 0.941783166 51.9766975 0.941783166 51.9766975 3.61368787 50.5483822 3.61368787 50.5483822 11.6295591 51.9766975 11.6295591 51.9766975 14.3010711"></polygon>
                <polygon id="Fill-50" points="52.8797467 14.3010711 52.8797467 11.6295591 54.2623456 11.6295591 54.2623456 3.61368787 52.8797467 3.61368787 52.8797467 0.941783166 59.1648615 0.941783166 59.1648615 3.61368787 57.8100759 3.61368787 57.8100759 11.6295591 61.2845162 11.6295591 62.0955813 9.02999966 64.3899491 9.02999966 64.3899491 14.3010711"></polygon>
                <polygon id="Fill-51" points="65.1089182 14.3010711 65.1089182 11.6295591 66.4913573 11.6295591 66.4913573 3.61368787 65.1089182 3.61368787 65.1089182 0.941783166 71.3937932 0.941783166 71.3937932 3.61368787 70.0391675 3.61368787 70.0391675 11.6295591 73.5136877 11.6295591 74.3247528 9.02999966 76.6188808 9.02999966 76.6188808 14.3010711"></polygon>
                <path d="M81.0977774,7.62586523 C81.0977774,8.69478422 81.4326575,9.57910887 82.1024175,10.2797818 C82.771778,10.9803762 83.6136936,11.3303199 84.627445,11.3303199 C85.6409566,11.3303199 86.4829521,10.9817901 87.1527122,10.2841021 C87.8220726,9.5871996 88.1570326,8.70059697 88.1570326,7.62586523 C88.1570326,6.54524218 87.8207938,5.653141 87.1479967,4.94964023 C86.4752794,4.24606091 85.6351222,3.89431053 84.627445,3.89431053 C83.6200075,3.89431053 82.7796105,4.24794613 82.107133,4.95403907 C81.4343358,5.66044622 81.0977774,6.55144769 81.0977774,7.62586523 M77.3562323,7.62586523 C77.3562323,6.58742395 77.5620357,5.62446996 77.974042,4.73653197 C78.3854889,3.84882963 78.990351,3.06127953 79.7894275,2.37278196 C80.4467195,1.81153665 81.177781,1.39011173 81.9824521,1.1094498 C82.7873631,0.828473669 83.6629265,0.688024878 84.6092224,0.688024878 C85.5552784,0.688024878 86.4319608,0.828473669 87.2402285,1.1094498 C88.0478569,1.39011173 88.7805169,1.81153665 89.4379687,2.37278196 C90.2306513,3.06127953 90.8341547,3.85212876 91.2490383,4.74603661 C91.6634423,5.63955171 91.8709241,6.59952077 91.8709241,7.62586523 C91.8709241,8.65260245 91.6634423,9.61100049 91.2490383,10.5016092 C90.8341547,11.3926892 90.2306513,12.1816532 89.4379687,12.8701508 C88.7805169,13.4317889 88.0478569,13.8547063 87.2402285,14.138196 C86.4319608,14.4221571 85.5552784,14.5640983 84.6092224,14.5640983 C83.6690806,14.5640983 82.7951157,14.4221571 81.9870877,14.138196 C81.1792995,13.8547063 80.4467195,13.4317889 79.7894275,12.8701508 C78.9966649,12.1816532 78.3930017,11.3926892 77.9785177,10.5016092 C77.5637141,9.61100049 77.3562323,8.65260245 77.3562323,7.62586523" id="Fill-52"></path>
                <polygon id="Fill-53" points="98.0547037 14.3010711 98.0547037 11.6295591 99.4187604 11.6295591 99.4187604 3.61368787 98.0547037 3.61368787 98.0547037 0.941783166 104.413668 0.941783166 106.533163 6.43963066 108.551395 0.941783166 114.928661 0.941783166 114.928661 3.61368787 113.555333 3.61368787 113.555333 11.6295591 114.928661 11.6295591 114.928661 14.3010711 108.680471 14.3010711 108.680471 11.6295591 110.118058 11.6295591 110.118058 4.22960452 107.325686 11.4847115 105.639137 11.4847115 102.847085 4.22960452 102.847085 11.6295591 104.302974 11.6295591 104.302974 14.3010711"></polygon>
                <path d="M121.232326,7.45418465 L123.858697,7.45418465 L122.531485,3.22406816 L121.232326,7.45418465 Z M115.416763,14.3010632 L115.416763,11.6295512 L116.568942,11.6295512 L119.094129,3.61368002 L117.757966,3.61368002 L117.757966,0.941775311 L127.323706,0.941775311 L127.323706,3.61368002 L126.005845,3.61368002 L128.512411,11.6295512 L129.682732,11.6295512 L129.682732,14.3010632 L123.738492,14.3010632 L123.738492,11.6295512 L124.945898,11.6295512 L124.402098,9.82704655 L120.679175,9.82704655 L120.172379,11.6295512 L121.361083,11.6295512 L121.361083,14.3010632 L115.416763,14.3010632 Z" id="Fill-54"></path>
                <polygon id="Fill-55" points="131.212319 14.3010711 131.212319 11.6295591 132.594678 11.6295591 132.594678 3.57731886 131.498126 3.57731886 130.797675 5.67847362 128.631824 5.67847362 128.631824 0.941783166 140.087119 0.941783166 140.087119 5.67847362 137.912317 5.67847362 137.220818 3.57731886 136.124266 3.57731886 136.124266 11.6295591 137.497354 11.6295591 137.497354 14.3010711"></polygon>
                <polygon id="Fill-56" points="140.842494 14.3010711 140.842494 11.6295591 142.225332 11.6295591 142.225332 3.61368787 140.842494 3.61368787 140.842494 0.941783166 153.034924 0.941783166 153.034924 5.75105454 150.675738 5.75105454 149.846451 3.61368787 145.772823 3.61368787 145.772823 5.78742355 148.445469 5.78742355 148.445469 8.75782122 145.772823 8.75782122 145.772823 11.6295591 149.846451 11.6295591 150.675738 9.02999966 153.034924 9.02999966 153.034924 14.3010711"></polygon>
                <path d="M159.264748,3.61367216 L159.264748,6.43961495 L160.656138,6.43961495 C161.301442,6.43961495 161.777307,6.32516647 162.084853,6.09516979 C162.3916,5.86588007 162.545373,5.50973084 162.545373,5.0262508 C162.545373,4.54355627 162.3916,4.18740705 162.084853,3.95772457 C161.777307,3.72812065 161.301442,3.61367216 160.656138,3.61367216 L159.264748,3.61367216 Z M154.352801,14.3010553 L154.352801,11.6295434 L155.716858,11.6295434 L155.716858,3.61367216 L154.352801,3.61367216 L154.352801,0.941767455 L162.739108,0.941767455 C163.795299,0.941767455 164.654478,1.26311869 165.314647,1.90652811 C165.975296,2.54954478 166.305621,3.38446099 166.305621,4.41072691 C166.305621,5.15318886 166.122755,5.76172174 165.756945,6.23561858 C165.391534,6.70990818 164.818242,7.09174351 164.038267,7.38159588 C164.701793,7.5807221 165.150484,7.81590313 165.383781,8.08768882 C165.617318,8.35986727 165.734167,8.76699595 165.734167,9.31056733 L165.734167,11.6295434 L166.959396,11.6295434 L166.959396,14.3010553 L162.204579,14.3010553 L162.204579,11.1854173 C162.204579,10.0684252 162.073664,9.36193954 161.812713,9.06635296 C161.551443,8.77029508 161.064788,8.62214831 160.352349,8.62214831 L159.264748,8.62214831 L159.264748,11.6295434 L160.352349,11.6295434 L160.352349,14.3010553 L154.352801,14.3010553 Z" id="Fill-57"></path>
                <polygon id="Fill-58" points="167.62309 14.3010711 167.62309 11.6295591 169.005529 11.6295591 169.005529 3.61368787 167.62309 3.61368787 167.62309 0.941783166 173.963352 0.941783166 173.963352 3.61368787 172.535037 3.61368787 172.535037 11.6295591 173.963352 11.6295591 173.963352 14.3010711"></polygon>
                <path d="M180.267409,7.45418465 L182.893779,7.45418465 L181.566647,3.22406816 L180.267409,7.45418465 Z M174.451845,14.3010632 L174.451845,11.6295512 L175.604024,11.6295512 L178.129212,3.61368002 L176.793048,3.61368002 L176.793048,0.941775311 L186.358789,0.941775311 L186.358789,3.61368002 L185.041008,3.61368002 L187.547493,11.6295512 L188.717895,11.6295512 L188.717895,14.3010632 L182.773974,14.3010632 L182.773974,11.6295512 L183.98098,11.6295512 L183.43758,9.82704655 L179.714337,9.82704655 L179.207461,11.6295512 L180.396166,11.6295512 L180.396166,14.3010632 L174.451845,14.3010632 Z" id="Fill-59"></path>
                <polygon id="Fill-60" points="189.187798 14.3010711 189.187798 11.6295591 190.570636 11.6295591 190.570636 3.61368787 189.187798 3.61368787 189.187798 0.941783166 195.472912 0.941783166 195.472912 3.61368787 194.118127 3.61368787 194.118127 11.6295591 197.592727 11.6295591 198.403792 9.02999966 200.698 9.02999966 200.698 14.3010711"></polygon>
                <polygon id="Fill-61" points="201.416809 14.3010711 201.416809 11.6295591 202.799648 11.6295591 202.799648 3.61368787 201.416809 3.61368787 201.416809 0.941783166 213.60924 0.941783166 213.60924 5.75105454 211.250054 5.75105454 210.420766 3.61368787 206.347378 3.61368787 206.347378 5.78742355 209.019705 5.78742355 209.019705 8.75782122 206.347378 8.75782122 206.347378 11.6295591 210.420766 11.6295591 211.250054 9.02999966 213.60924 9.02999966 213.60924 14.3010711"></polygon>
                <path d="M218.171121,12.9064884 L218.253922,14.3010789 L215.286437,14.3010789 L215.286437,9.77246947 L218.437986,9.77246947 C218.966841,10.4913662 219.461009,11.001632 219.921848,11.3031099 C220.382448,11.6054519 220.889324,11.7561908 221.442795,11.7561908 C221.897001,11.7561908 222.262732,11.6490476 222.538868,11.4348396 C222.815404,11.2206316 222.953911,10.938163 222.953911,10.5875123 C222.953911,10.2554782 222.817322,9.98408526 222.543424,9.77246947 C222.270165,9.56116788 221.863353,9.41333531 221.32259,9.32857902 L219.875972,9.09347654 C218.303235,8.83967898 217.129876,8.36570359 216.355336,7.67139326 C215.581356,6.97731859 215.194285,6.05293304 215.194285,4.89972907 C215.194285,3.69216796 215.633546,2.68491133 216.512466,1.8790589 C217.390667,1.07281372 218.487219,0.670005329 219.802043,0.670005329 C220.49626,0.670005329 221.109114,0.790737875 221.640526,1.03243862 C222.172098,1.27382516 222.628143,1.64246396 223.009139,2.13725531 L222.972214,0.941791021 L225.930347,0.941791021 L225.930347,5.15313387 L222.972214,5.15313387 C222.585224,4.50100532 222.187364,4.0197247 221.778714,3.70866362 C221.369985,3.39799529 220.929605,3.24215055 220.456378,3.24215055 C220.038297,3.24215055 219.693107,3.35251439 219.419848,3.57292788 C219.146269,3.79341991 219.00936,4.06630531 219.00936,4.39276234 C219.00936,4.72471793 219.153782,4.99218333 219.442626,5.19421593 C219.73155,5.39640563 220.213809,5.56403299 220.889324,5.69717656 L222.142846,5.91429091 C223.70935,6.20995604 224.8708,6.70223376 225.626558,7.39073133 C226.381916,8.0789147 226.759635,8.99041792 226.759635,10.1256338 C226.759635,11.4660242 226.33564,12.5411487 225.48813,13.3503003 C224.64054,14.1595304 223.503706,14.5640669 222.078348,14.5640669 C221.273277,14.5640669 220.54853,14.4265245 219.903626,14.1518324 C219.258322,13.8769833 218.680954,13.4618424 218.171121,12.9064884" id="Fill-62"></path>
            </g>
        </g>
    </g>
</svg>